<?xml version="1.0" encoding="UTF-8" standalone="no"?>
<!DOCTYPE svg PUBLIC "-//W3C//DTD SVG 1.1//EN"
 "http://www.w3.org/Graphics/SVG/1.1/DTD/svg11.dtd">
<!-- Generated by graphviz version 2.49.0 (20210829.0051)
 -->
<!-- Title: snakemake_dag Pages: 1 -->
<svg width="695pt" height="116pt"
 viewBox="0.00 0.00 695.00 116.00" xmlns="http://www.w3.org/2000/svg" xmlns:xlink="http://www.w3.org/1999/xlink">
<g id="graph0" class="graph" transform="scale(1 1) rotate(0) translate(4 112)">
<title>snakemake_dag</title>
<polygon fill="white" stroke="transparent" points="-4,4 -4,-112 691,-112 691,4 -4,4"/>
<!-- 0 -->
<g id="node1" class="node">
<title>0</title>
<path fill="none" stroke="#d85656" stroke-width="2" stroke-dasharray="5,2" d="M358.5,-36C358.5,-36 328.5,-36 328.5,-36 322.5,-36 316.5,-30 316.5,-24 316.5,-24 316.5,-12 316.5,-12 316.5,-6 322.5,0 328.5,0 328.5,0 358.5,0 358.5,0 364.5,0 370.5,-6 370.5,-12 370.5,-12 370.5,-24 370.5,-24 370.5,-30 364.5,-36 358.5,-36"/>
<text text-anchor="middle" x="343.5" y="-15.5" font-family="sans" font-size="10.00">all</text>
</g>
<!-- 1 -->
<g id="node2" class="node">
<title>1</title>
<path fill="none" stroke="#59d856" stroke-width="2" stroke-dasharray="5,2" d="M111,-108C111,-108 12,-108 12,-108 6,-108 0,-102 0,-96 0,-96 0,-84 0,-84 0,-78 6,-72 12,-72 12,-72 111,-72 111,-72 117,-72 123,-78 123,-84 123,-84 123,-96 123,-96 123,-102 117,-108 111,-108"/>
<text text-anchor="middle" x="61.5" y="-93" font-family="sans" font-size="10.00">prokka_short</text>
<text text-anchor="middle" x="61.5" y="-82" font-family="sans" font-size="10.00">barcode: SRR1965341</text>
</g>
<!-- 1&#45;&gt;0 -->
<g id="edge1" class="edge">
<title>1&#45;&gt;0</title>
<path fill="none" stroke="grey" stroke-width="2" d="M123.04,-73.72C178.93,-59.85 259.57,-39.83 306.25,-28.25"/>
<polygon fill="grey" stroke="grey" stroke-width="2" points="307.37,-31.58 316.23,-25.77 305.68,-24.78 307.37,-31.58"/>
</g>
<!-- 2 -->
<g id="node3" class="node">
<title>2</title>
<path fill="none" stroke="#59d856" stroke-width="2" stroke-dasharray="5,2" d="M252,-108C252,-108 153,-108 153,-108 147,-108 141,-102 141,-96 141,-96 141,-84 141,-84 141,-78 147,-72 153,-72 153,-72 252,-72 252,-72 258,-72 264,-78 264,-84 264,-84 264,-96 264,-96 264,-102 258,-108 252,-108"/>
<text text-anchor="middle" x="202.5" y="-93" font-family="sans" font-size="10.00">prokka_short</text>
<text text-anchor="middle" x="202.5" y="-82" font-family="sans" font-size="10.00">barcode: SRR1968189</text>
</g>
<!-- 2&#45;&gt;0 -->
<g id="edge2" class="edge">
<title>2&#45;&gt;0</title>
<path fill="none" stroke="grey" stroke-width="2" d="M236.99,-71.88C258.3,-61.3 285.6,-47.74 307.23,-37.01"/>
<polygon fill="grey" stroke="grey" stroke-width="2" points="309.02,-40.03 316.42,-32.44 305.91,-33.76 309.02,-40.03"/>
</g>
<!-- 3 -->
<g id="node4" class="node">
<title>3</title>
<path fill="none" stroke="#59d856" stroke-width="2" stroke-dasharray="5,2" d="M393,-108C393,-108 294,-108 294,-108 288,-108 282,-102 282,-96 282,-96 282,-84 282,-84 282,-78 288,-72 294,-72 294,-72 393,-72 393,-72 399,-72 405,-78 405,-84 405,-84 405,-96 405,-96 405,-102 399,-108 393,-108"/>
<text text-anchor="middle" x="343.5" y="-93" font-family="sans" font-size="10.00">prokka_short</text>
<text text-anchor="middle" x="343.5" y="-82" font-family="sans" font-size="10.00">barcode: SRR7828287</text>
</g>
<!-- 3&#45;&gt;0 -->
<g id="edge3" class="edge">
<title>3&#45;&gt;0</title>
<path fill="none" stroke="grey" stroke-width="2" d="M343.5,-71.7C343.5,-63.98 343.5,-54.71 343.5,-46.11"/>
<polygon fill="grey" stroke="grey" stroke-width="2" points="347,-46.1 343.5,-36.1 340,-46.1 347,-46.1"/>
</g>
<!-- 4 -->
<g id="node5" class="node">
<title>4</title>
<path fill="none" stroke="#59d856" stroke-width="2" stroke-dasharray="5,2" d="M534,-108C534,-108 435,-108 435,-108 429,-108 423,-102 423,-96 423,-96 423,-84 423,-84 423,-78 429,-72 435,-72 435,-72 534,-72 534,-72 540,-72 546,-78 546,-84 546,-84 546,-96 546,-96 546,-102 540,-108 534,-108"/>
<text text-anchor="middle" x="484.5" y="-93" font-family="sans" font-size="10.00">prokka_short</text>
<text text-anchor="middle" x="484.5" y="-82" font-family="sans" font-size="10.00">barcode: SRR2075991</text>
</g>
<!-- 4&#45;&gt;0 -->
<g id="edge4" class="edge">
<title>4&#45;&gt;0</title>
<path fill="none" stroke="grey" stroke-width="2" d="M450.01,-71.88C428.7,-61.3 401.4,-47.74 379.77,-37.01"/>
<polygon fill="grey" stroke="grey" stroke-width="2" points="381.09,-33.76 370.58,-32.44 377.98,-40.03 381.09,-33.76"/>
</g>
<!-- 5 -->
<g id="node6" class="node">
<title>5</title>
<path fill="none" stroke="#59d856" stroke-width="2" stroke-dasharray="5,2" d="M675,-108C675,-108 576,-108 576,-108 570,-108 564,-102 564,-96 564,-96 564,-84 564,-84 564,-78 570,-72 576,-72 576,-72 675,-72 675,-72 681,-72 687,-78 687,-84 687,-84 687,-96 687,-96 687,-102 681,-108 675,-108"/>
<text text-anchor="middle" x="625.5" y="-93" font-family="sans" font-size="10.00">prokka_short</text>
<text text-anchor="middle" x="625.5" y="-82" font-family="sans" font-size="10.00">barcode: SRR5584993</text>
</g>
<!-- 5&#45;&gt;0 -->
<g id="edge5" class="edge">
<title>5&#45;&gt;0</title>
<path fill="none" stroke="grey" stroke-width="2" d="M563.96,-73.72C508.07,-59.85 427.43,-39.83 380.75,-28.25"/>
<polygon fill="grey" stroke="grey" stroke-width="2" points="381.32,-24.78 370.77,-25.77 379.63,-31.58 381.32,-24.78"/>
</g>
</g>
</svg>
